<svg width="300" height="300" viewBox="0 0 300 300" fill="none" xmlns="http://www.w3.org/2000/svg">
<path fill-rule="evenodd" clip-rule="evenodd" d="M150.154 0C232.956 0 300 67.1134 300 150C300 232.887 232.956 300 150.154 300C67.3532 300 0 232.887 0 150C0 67.1134 67.3532 0 150.154 0ZM150.154 20.1031C221.833 20.1031 279.918 78.2474 279.918 150C279.918 221.753 221.833 280.206 150.154 280.206C78.1668 280.206 20.0824 221.753 20.0824 150C20.0824 78.2474 78.1668 20.1031 150.154 20.1031Z" fill="#867265"/>
<path fill-rule="evenodd" clip-rule="evenodd" d="M123.274 116.291L122.347 116.909L123.274 116.291ZM216.888 75.1569C221.832 75.1569 225.848 78.5589 225.848 84.1259C225.848 88.1465 215.961 96.1878 211.636 100.827L173.016 139.177C167.764 144.744 165.91 144.435 165.91 150.002C165.91 152.167 168.382 153.714 170.235 153.714C174.252 153.714 206.693 119.384 211.636 114.126C214.108 111.652 215.961 109.796 218.433 107.322C221.523 104.538 227.702 98.0434 233.263 104.848C240.06 112.58 228.629 120.311 223.685 125.569C218.433 130.518 183.83 163.301 183.83 167.322C183.83 170.105 185.992 171.652 189.082 171.652C195.57 171.652 216.27 141.652 223.377 141.652C228.938 141.652 232.336 144.744 232.336 150.002C232.336 154.023 225.848 159.281 221.832 163.301L161.585 223.61C143.356 237.837 119.566 240.93 97.9388 231.342C77.8565 222.373 64.8801 202.27 64.8801 179.074C64.8801 160.208 76.3117 145.982 83.4177 133.301C87.1252 125.878 91.1417 119.693 94.8492 112.58C97.012 109.177 98.8657 106.085 100.719 102.683C109.679 85.9816 120.184 98.662 118.021 104.848C115.55 111.342 94.8492 143.817 94.8492 146.909C94.8492 149.384 96.703 151.549 99.1747 151.549C103.809 151.549 117.094 136.394 120.802 132.683L172.089 81.3424C176.415 76.7032 182.594 67.4249 190.318 74.5383C198.042 81.3424 186.301 89.3837 179.813 95.8785L169 106.703C163.129 113.817 158.186 118.456 151.389 124.951C149.226 127.425 145.519 129.899 148.608 133.61C151.698 137.631 155.096 134.229 157.568 131.755L200.822 88.4558C203.912 85.363 212.563 75.1569 216.888 75.1569ZM123.274 116.291C123.891 113.198 125.127 112.27 126.054 110.105C131.307 98.3527 121.111 84.4352 109.061 85.6723C105.045 85.9816 98.8657 88.7651 97.012 91.2393C94.5403 94.3321 92.0686 98.9713 89.9059 102.373C87.7432 106.394 85.5804 110.105 83.4177 113.817C68.2787 140.415 50.668 162.373 57.1561 192.992C61.1726 212.476 71.9862 227.013 86.8163 235.982C112.151 251.136 143.665 249.281 168.691 229.796L223.068 175.672C227.084 171.342 238.207 161.755 240.06 156.806C244.077 146.291 238.516 135.466 229.556 133.61C234.19 126.188 241.605 124.332 243.768 114.126C246.24 104.848 240.06 94.3321 231.718 93.7136C241.296 75.4661 225.848 62.4764 211.636 67.1156C205.148 69.2806 205.766 72.0641 201.131 75.1569C199.278 71.4455 198.042 67.7342 193.716 65.2599C182.903 59.0744 174.87 64.9507 168.382 71.4455L141.502 98.3527C136.868 102.683 127.599 113.507 123.274 116.291ZM115.859 176.909C115.859 171.961 119.566 167.94 126.054 167.94C130.689 167.94 130.998 171.652 135.323 171.652C140.266 171.652 138.104 167.94 146.446 167.94C151.08 167.94 154.787 172.58 154.787 177.528C154.787 182.167 147.99 186.497 145.519 189.59C142.738 192.683 138.722 197.631 135.323 200.105L124.818 189.59C122.038 186.497 115.859 181.858 115.859 176.909ZM106.59 176.291C106.59 187.734 116.785 194.848 126.054 204.126C137.177 215.26 135.941 212.476 151.698 196.703C156.95 191.446 163.747 186.497 163.747 176.909C163.747 163.61 151.389 156.188 139.648 159.59C137.795 160.208 136.559 161.136 135.323 161.136C134.705 161.136 121.42 154.332 111.842 163.92C109.679 166.394 106.59 171.961 106.59 176.291Z" fill="#867265"/>
</svg>
