<svg width="300" height="300" viewBox="0 0 300 300" fill="none" xmlns="http://www.w3.org/2000/svg">
<path fill-rule="evenodd" clip-rule="evenodd" d="M150.154 0C232.647 0 300 67.1134 300 150C300 232.887 232.647 300 150.154 300C67.3532 300 0 232.887 0 150C0 67.1134 67.3532 0 150.154 0ZM150.154 20.1031C221.833 20.1031 279.918 78.2474 279.918 150C279.918 221.753 221.833 280.206 150.154 280.206C78.1668 280.206 20.0824 221.753 20.0824 150C20.0824 78.2474 78.1668 20.1031 150.154 20.1031Z" fill="#867265"/>
<path fill-rule="evenodd" clip-rule="evenodd" d="M46.3429 150.605C46.3429 183.389 43.8713 176.894 55.3028 184.626C58.3924 186.791 60.864 188.337 63.6447 190.502C106.899 224.832 90.2152 242.77 108.135 246.482C114.314 247.719 116.168 247.41 118.331 243.08C123.583 233.801 129.762 225.76 137.486 219.265C145.519 212.77 155.406 208.75 164.984 204.111C183.83 195.451 201.132 183.389 210.71 164.214C217.198 150.915 220.596 136.069 225.849 121.843C228.32 114.729 230.792 107.925 233.882 101.43L243.768 83.1827C231.101 81.9456 205.457 87.2034 193.408 90.6054C178.578 94.9353 164.984 101.121 153.552 108.234C141.812 115.657 131.925 125.245 123.892 136.688C109.989 157.1 110.916 173.183 111.224 196.069C113.078 193.904 114.314 190.193 115.859 187.719C119.566 180.296 125.746 171.018 130.38 164.523C132.234 162.049 134.088 159.884 135.941 157.41C140.885 151.224 152.007 139.781 157.26 134.832L167.764 126.482C177.342 118.44 204.53 101.739 215.344 99.2652C206.384 105.451 199.896 109.781 191.245 116.585L172.708 132.358C166.219 138.853 161.894 142.255 155.406 149.678L148.918 156.791C135.632 170.399 117.713 198.544 110.916 215.554C109.68 214.317 106.59 205.657 105.354 203.183C101.029 193.595 95.1586 184.626 88.6704 176.585C79.7106 165.76 68.2791 155.245 55.9207 148.75C49.4325 145.348 46.3429 143.183 46.3429 150.605Z" fill="#867265"/>
</svg>
