<svg width="300" height="300" viewBox="0 0 300 300" fill="none" xmlns="http://www.w3.org/2000/svg">
<path fill-rule="evenodd" clip-rule="evenodd" d="M149.846 0C232.647 0 300 67.1134 300 150C300 232.887 232.647 300 149.846 300C67.0443 300 0 232.887 0 150C0 67.1134 67.0443 0 149.846 0ZM149.846 20.1031C221.833 20.1031 279.918 78.2474 279.918 150C279.918 221.753 221.833 280.206 149.846 280.206C78.1668 280.206 20.0824 221.753 20.0824 150C20.0824 78.2474 78.1668 20.1031 149.846 20.1031Z" fill="#867265"/>
<path fill-rule="evenodd" clip-rule="evenodd" d="M177.962 71.1188L169.929 85.6549C167.766 89.6755 163.441 101.119 163.441 101.428L159.733 115.655C159.424 120.294 157.57 126.48 157.879 131.119L157.57 135.449L159.424 134.212C160.969 131.737 161.587 129.882 163.441 128.954C163.441 128.335 169.311 118.748 169.929 118.438C169.929 118.129 175.799 105.758 177.035 101.428C177.344 100.5 177.962 99.5724 178.271 98.3353C178.58 97.0982 178.58 96.1703 179.507 95.2425C179.507 93.6961 180.124 92.1497 180.433 90.6033C181.669 86.892 182.905 78.5415 183.214 77.6136C183.214 77.6136 183.214 77.6136 183.214 77.3043L183.523 76.3765C183.214 73.9023 184.759 66.4796 184.45 62.459L181.051 66.4796C180.433 67.7167 178.889 70.5002 177.962 71.1188ZM210.094 80.0878L209.785 80.3971L190.629 96.4796C189.393 98.3353 186.922 100.5 185.377 102.047C183.832 103.902 182.287 105.758 180.742 107.923C177.344 111.634 174.254 115.346 171.474 119.675C170.547 120.913 167.148 126.48 166.53 127.098C166.221 128.645 165.294 129.263 164.368 130.809L158.806 141.325L184.141 125.861C187.231 124.315 196.19 115.964 199.28 113.181C203.605 109.16 208.24 104.521 211.947 99.8817C212.256 99.5724 211.947 99.5724 212.256 99.2631C212.874 98.6446 212.565 98.9538 212.874 98.6446L221.834 86.892C222.761 85.6549 223.688 84.1085 224.924 82.8714L230.176 74.2116C231.721 71.4281 233.266 68.026 234.81 65.2425C227.086 68.026 216.582 76.0672 210.094 80.0878ZM195.572 123.696C194.955 124.315 195.572 124.005 193.719 124.933C190.011 126.17 181.978 130.5 178.889 132.356C177.344 132.974 176.417 133.902 175.181 134.521C174.254 135.139 172.709 136.067 171.474 136.686L165.912 140.706C164.676 141.634 164.676 141.325 164.368 142.562C178.271 142.253 188.466 139.779 201.134 135.449C204.532 134.521 208.858 132.047 211.947 131.428C214.11 130.191 216.891 128.954 219.362 127.717C222.143 126.17 224.306 124.624 227.086 123.078C229.558 121.531 235.428 117.511 237.282 115.655C230.794 115.036 220.598 116.892 214.728 118.129C207.622 119.675 196.19 123.696 195.572 123.696ZM141.196 145.964C139.651 146.892 138.415 148.748 136.87 150.294C135.325 151.531 133.78 153.078 132.236 154.315C131 155.242 123.894 161.428 122.349 161.428C122.04 163.284 122.967 163.593 123.894 164.521C124.821 165.139 125.13 165.758 125.748 166.377C126.983 167.614 129.146 169.16 129.455 170.397C130.691 171.016 130.382 171.016 131.309 171.944C131.927 172.562 132.236 172.871 132.854 173.49C133.78 174.108 135.634 175.964 135.943 176.892C137.179 177.511 136.561 177.511 138.106 178.129C138.415 177.511 138.724 176.892 139.033 176.273C139.651 175.346 139.651 175.655 140.578 175.036C140.578 173.49 145.83 167.304 146.757 166.377C147.993 165.139 149.537 163.593 150.464 162.356C151.7 161.119 153.554 159.263 154.79 158.645L157.879 156.17C158.497 154.005 160.042 154.315 161.896 153.387C162.823 152.768 164.676 151.222 165.603 150.603C164.985 148.129 164.059 148.129 161.896 145.964C160.969 145.346 160.351 144.418 159.733 143.799L149.846 134.521L141.196 145.964ZM116.479 168.232C115.861 170.088 112.462 173.799 111.535 175.036L105.356 181.531C103.502 183.387 101.34 185.242 99.177 186.789L92.0709 192.047L94.8515 195.139C95.7784 196.067 95.4695 195.449 95.7784 196.377C97.0143 196.686 103.811 203.799 104.12 204.727C106.283 205.655 105.974 207.201 108.446 207.82C110.608 203.49 117.097 196.067 119.877 193.284C122.658 190.5 126.674 186.789 130.382 184.315C131.309 183.696 133.163 182.459 134.398 181.531C134.089 180.913 134.089 180.603 133.78 180.294C132.236 179.366 131 177.82 129.764 176.273C128.837 175.346 128.528 175.036 127.601 174.418C126.674 173.181 126.365 173.181 125.748 171.944L124.821 171.325C122.967 169.779 120.186 165.758 118.024 165.758C118.024 166.377 118.024 165.758 117.715 166.686L117.406 167.304C117.097 167.614 116.788 167.923 116.479 168.232ZM72.9154 232.562C74.1512 233.181 74.7692 234.108 75.696 235.036C76.6229 235.964 77.5498 236.583 77.8588 237.511C79.0946 237.201 79.0946 236.892 79.7125 235.964C80.3304 235.036 80.6394 234.418 81.2573 233.49C82.1842 231.944 83.42 230.706 84.3469 229.469C86.5096 225.758 95.4695 217.717 99.177 214.933L101.958 213.078C103.193 212.459 103.811 211.84 104.738 211.222C104.429 209.675 102.576 208.748 101.34 207.201C100.413 206.892 99.177 205.346 98.2501 204.418C97.3232 203.181 95.7784 201.944 95.4695 201.016C94.5426 200.397 94.5426 200.397 93.6157 199.469L90.5261 196.377C89.5992 195.449 89.9082 195.449 88.6724 195.139C87.7455 198.232 79.0946 207.82 76.9319 209.985C72.9154 214.315 67.6631 217.717 62.7197 221.737C63.0287 222.974 64.2645 223.593 65.1914 224.521L72.9154 232.562Z" fill="#867265"/>
</svg>
