<svg width="146" height="113" viewBox="0 0 146 113" fill="none" xmlns="http://www.w3.org/2000/svg">
<path d="M128.746 111.758C128.287 111.639 128.083 111.091 128.032 110.947C127.752 110.16 128.083 109.468 128.313 108.753C128.415 108.419 128.491 107.536 128.695 105.771C128.695 105.771 128.874 103.91 128.721 101.597C128.491 98.1854 127.267 95.1797 126.604 93.4622C125.814 91.4346 124.156 87.5702 120.866 83.4433C112.935 73.5438 102.225 68.3912 89.1169 67.5563C84.2461 67.2462 79.4773 67.9857 74.8105 69.3215C71.4188 70.2757 68.0526 71.4446 64.5589 71.9694C49.8445 74.2594 34.7731 67.3655 27.4797 55.2236C27.0207 54.4603 26.4596 53.6731 26.2556 52.8382C26.1026 52.2179 26.2556 51.3353 26.6637 50.7867C28.3723 48.4728 30.0809 46.1112 32.0445 43.9643C39.1594 36.2594 47.9829 30.8683 58.3365 27.7911C70.9343 24.0698 83.5065 24.2845 96.0023 28.4113C96.2063 28.459 96.4103 28.5544 96.7418 28.459C96.3593 28.2681 95.9768 28.0296 95.5943 27.8626C85.6487 23.4496 75.2186 21.7082 64.2529 22.5908C57.6225 23.1156 51.2471 24.6184 45.2033 27.1231C34.4416 31.6078 25.7201 38.4301 19.2172 47.6618C12.2298 57.5613 8.9656 68.5105 9.32262 80.3423C9.52664 87.1885 11.1077 93.82 13.8364 100.165C15.188 103.266 16.9476 106.2 18.4777 109.254C18.5542 109.397 18.9877 110.017 18.8857 110.757C18.8602 110.9 18.7582 111.448 18.2992 111.782C18.1972 111.854 17.9676 112.045 17.6616 112.045C17.2026 112.045 16.8456 111.687 16.6926 111.472C14.7289 108.753 12.6378 106.105 10.7507 103.338C6.89998 97.589 4.34983 91.3153 2.64123 84.7553C-1.41352 69.0353 0.295086 53.84 7.74153 39.2412C13.5559 27.8388 22.1754 18.7264 33.4216 11.7848C38.3689 8.7314 43.6477 6.25055 49.258 4.50918C65.5535 -0.595662 81.8234 -0.571808 97.9659 4.96241C111.635 9.66172 122.804 17.5337 131.475 28.459C134.739 32.5858 137.391 37.0466 139.584 41.7936C143.359 49.9518 145.297 58.4439 145.475 67.3178C145.526 70.1087 145.45 75.0227 144.251 81.0579C144.251 81.0579 142.492 90.0272 138.513 97.923C137.468 100.022 136.626 101.453 136.091 102.36C134.79 104.602 133.592 106.463 132.648 107.87C132.214 108.49 130.608 110.78 129.613 111.472C129.409 111.615 129.078 111.83 128.746 111.758Z" fill="#C86E54"/>
</svg>
