<svg width="72" height="58" viewBox="0 0 72 58" fill="none" xmlns="http://www.w3.org/2000/svg">
<path d="M63.4911 57.3634C63.2648 57.3023 63.1642 57.021 63.139 56.9471C63.0009 56.5431 63.1642 56.188 63.2776 55.821C63.3279 55.6495 63.3654 55.1963 63.466 54.2904C63.466 54.2904 63.5542 53.3352 63.4788 52.148C63.3654 50.3969 62.7617 48.8541 62.4348 47.9726C62.0452 46.9319 61.2276 44.9484 59.6051 42.8302C55.6939 37.749 50.4123 35.1043 43.948 34.6758C41.546 34.5166 39.1942 34.8962 36.8928 35.5818C35.2202 36.0716 33.5601 36.6715 31.8372 36.9409C24.5808 38.1163 17.1483 34.5778 13.5516 28.3457C13.3252 27.9539 13.0485 27.5499 12.9479 27.1213C12.8725 26.803 12.9479 26.3499 13.1492 26.0684C13.9918 24.8807 14.8344 23.6686 15.8027 22.5666C19.3114 18.6119 23.6627 15.8448 28.7686 14.2653C34.9812 12.3553 41.1812 12.4655 47.3435 14.5837C47.4441 14.6081 47.5447 14.6571 47.7082 14.6081C47.5196 14.5102 47.331 14.3877 47.1423 14.302C42.2377 12.0369 37.094 11.1431 31.6863 11.5961C28.4165 11.8655 25.2725 12.6369 22.292 13.9225C16.9848 16.2243 12.6838 19.726 9.47692 24.4644C6.03108 29.5456 4.42134 35.1655 4.59741 41.2385C4.69802 44.7525 5.47772 48.1562 6.82338 51.413C7.48992 53.0046 8.35767 54.5106 9.11224 56.0781C9.14996 56.1515 9.36375 56.4698 9.31344 56.8496C9.30087 56.923 9.25057 57.2042 9.02421 57.3757C8.97391 57.4126 8.86068 57.5107 8.70978 57.5107C8.48342 57.5107 8.30737 57.3269 8.23192 57.2166C7.26352 55.821 6.23229 54.4618 5.30166 53.0416C3.40268 50.0908 2.14507 46.8707 1.30247 43.5036C-0.697128 35.4349 0.145472 27.6355 3.81769 20.1424C6.68505 14.2898 10.9358 9.61264 16.4818 6.0497C18.9216 4.48247 21.5248 3.20911 24.2916 2.31531C32.3277 -0.304874 40.3512 -0.29263 48.3119 2.54794C55.0528 4.95998 60.5608 9.00046 64.8369 14.6081C66.4466 16.7263 67.7544 19.0159 68.8359 21.4524C70.6975 25.6398 71.6533 29.9986 71.741 34.5534C71.7662 35.9859 71.7287 38.5081 71.1374 41.6058C71.1374 41.6058 70.27 46.2095 68.3077 50.2622C67.7924 51.3396 67.3771 52.0741 67.1133 52.5396C66.4717 53.6904 65.8809 54.6456 65.4154 55.3678C65.2014 55.686 64.4094 56.8614 63.9187 57.2166C63.8181 57.29 63.6548 57.4003 63.4911 57.3634Z" fill="#FCFAF0"/>
</svg>
