<svg width="820" height="199" viewBox="0 0 820 199" fill="none" xmlns="http://www.w3.org/2000/svg">
<path fill-rule="evenodd" clip-rule="evenodd" d="M74.2721 52.9529L78.3221 83.5357L79.8561 96.9616C79.9752 98.0088 79.8709 98.9025 79.5083 99.6673C79.1653 100.447 78.6054 100.875 77.8337 100.968C75.7707 101.214 74.4699 98.9269 73.9173 94.0879L68.962 52.3466L66.9943 30.1827C66.3867 24.8712 67.2325 22.0681 69.5505 21.793C70.9345 21.6274 72.0829 22.8304 73 25.4241C74.4485 30.414 76.7807 37.5445 80.0157 46.8451C83.2461 56.1261 85.5427 63.2178 86.9149 68.0981C87.7725 70.4579 88.9421 73.9625 90.3978 78.6114C91.8724 83.2605 93.0063 86.7648 93.7997 89.0931C92.0938 71.9241 89.838 51.1776 87.0555 26.7902L86.5671 23.6244C86.4431 22.5383 86.5052 21.6712 86.7481 21.0014C87.0054 20.3319 87.52 19.9276 88.2751 19.8375C89.0494 19.7473 89.7068 19.9081 90.2643 20.322C91.3459 21.1355 91.9843 22.3774 92.1773 24.0774C93.4136 34.9169 94.7692 48.869 96.2033 65.9284C97.6542 82.9902 98.1306 93.7202 97.6328 98.0649C97.5137 98.1208 97.2588 98.2694 96.8823 98.4739C96.5083 98.698 96.2247 98.8513 96.0389 98.9172C94.3451 99.6185 93.2326 99.6503 92.6799 99.0145C92.1439 98.3789 91.7032 97.4901 91.3674 96.3503C91.0482 95.2276 90.6836 94.1294 90.2881 93.0553C89.9094 91.9789 88.3324 86.8453 85.5593 77.647C78.1957 53.306 73.7695 39.1617 72.2519 35.2384L74.2721 52.9529ZM130.606 40.6643L130.894 42.6904C130.699 45.5056 130.851 50.3252 131.351 57.1271C131.852 63.9289 132.099 69.4156 132.097 73.6117C132.08 77.8078 131.887 81.5021 131.509 84.7339C131.128 87.9484 130.284 90.6688 128.998 92.9117C127.695 95.1376 126.12 96.3528 124.288 96.5354C122.454 96.7156 120.915 96.4478 119.652 95.7367C118.404 95.0207 117.344 93.9053 116.453 92.4173C115.562 90.9269 114.787 89.3049 114.128 87.5515C113.453 85.8005 112.891 83.7597 112.415 81.4315C111.598 77.3353 110.962 73.0029 110.528 68.3929L108.086 37.0381C107.438 30.19 106.507 24.5693 105.308 20.1734L105.042 17.3267C106.554 17.1756 107.826 17.7893 108.836 19.1872C109.858 20.5631 110.456 22.1631 110.63 23.9824L116.067 81.4292C116.355 84.4757 117.22 87.2082 118.692 89.6191C120.148 92.0325 122.068 93.1186 124.436 92.8848C127.123 92.6193 127.98 82.6662 127.03 63.0279L126.98 62.4921L126.956 61.7347C126.058 43.8083 125.098 29.3035 124.055 18.2618L123.816 16.2867C123.731 15.3565 123.838 14.6478 124.128 14.1582C124.429 13.6518 125.057 13.3693 126.006 13.2743C126.968 13.1794 127.709 13.4252 128.231 14.0339C128.75 14.6599 129.079 15.2884 129.224 15.9702C129.369 16.6375 129.5 17.5408 129.612 18.7099L130.094 30.7063L130.606 40.6643ZM156.329 80.5257L156.16 76.4465C155.834 75.4601 154.524 66.5785 152.256 49.7603C150.005 32.9614 148.668 22.7063 148.278 18.9874C144.63 19.2042 142.334 18.9969 141.417 18.3641C140.485 17.7332 139.992 17.0174 139.925 16.2453C139.856 15.4758 140.132 14.8304 140.769 14.2726C141.405 13.7345 142.048 13.435 142.698 13.3764L155.658 13.2766L157.187 13.0746C159.162 12.892 160.239 13.7515 160.408 15.6511C160.494 16.6228 160.232 17.424 159.636 18.0986C159.041 18.7512 158.34 19.1141 157.535 19.1896L153.118 18.7804L153.035 20.0054C153.7 27.5112 155.229 38.7087 157.597 53.5788C159.96 68.4318 161.494 79.649 162.161 87.191C162.245 88.1433 162.016 89.003 161.511 89.7677C161.004 90.5128 160.37 90.9097 159.596 90.9828L157.461 91.1801L156.329 80.5257ZM180.24 49.3341C180.317 50.3422 180.217 51.9667 179.959 54.2218C179.697 56.4548 179.633 58.5151 179.776 60.3953C179.919 62.2607 180.414 66.2692 181.255 72.3624C182.12 78.475 182.611 82.4056 182.747 84.1883C182.88 85.9735 182.73 87.3397 182.296 88.3138C181.858 89.2855 181.308 89.8066 180.66 89.8578C179.728 89.9309 179.083 89.1856 178.725 87.6197C178.561 84.6608 178.304 81.054 177.977 76.7703C177.653 72.4891 176.672 63.1179 175.03 48.6498C173.389 34.1644 172.298 23.3444 171.755 16.1894C171.469 12.4414 172.367 10.4736 174.473 10.308C177.779 10.045 180.648 10.9144 183.056 12.8967C185.486 14.8791 186.844 17.8988 187.149 21.9244C187.561 27.3333 187.549 31.583 187.099 34.6514C186.649 37.737 185.655 41.6043 184.114 46.2923C184.59 48.1505 185.481 51.9057 186.785 57.5264C189.538 69.6909 192.268 78.4069 194.979 83.6964C195.744 85.1917 196.154 86.3753 196.221 87.2471C196.287 88.1189 196.154 88.8666 195.818 89.4924C195.468 90.1184 194.968 90.4788 194.32 90.53C192.264 90.6931 190.02 86.5239 187.642 78.0173C186.611 74.3301 185.658 70.5797 184.781 66.7977C182.325 56.4477 180.8 50.6247 180.24 49.3341ZM176.803 14.5699L176.615 16.2819C176.862 19.5307 177.279 24.2039 177.858 30.3409C178.451 36.4732 178.852 40.9274 179.064 43.7035C180.479 42.6149 181.472 40.002 182.08 35.8473C182.687 31.6901 182.909 28.5217 182.744 26.3616C182.58 24.1795 182.411 22.5991 182.237 21.5762C182.063 20.5534 181.772 19.4404 181.379 18.235C180.595 15.6828 179.071 14.47 176.803 14.5699ZM218.976 85.3889L215.4 85.6642L211.298 86.1755C209.523 86.2949 208.306 85.6568 207.629 84.2688C207.556 83.0973 207.608 82.1987 207.808 81.5461C208.003 80.8764 208.458 80.5282 209.202 80.477L211.896 80.2991L211.984 78.7211L209.731 53.4887L208.554 26.9509C208.27 22.4871 207.841 18.2716 207.289 14.3019C205.96 14.3895 204.723 14.4724 203.599 14.548C202.477 14.621 201.621 14.4601 201.071 14.0388C200.518 13.637 200.197 12.8213 200.118 11.5719C200.001 9.70892 201.669 8.67869 205.092 8.49119L205.423 8.46929C213.564 7.92869 217.721 9.02955 217.892 11.7279C217.919 12.1637 217.776 12.9114 217.463 13.9854L212.601 14.3093C213.023 17.1902 213.366 20.5924 213.616 24.5011L214.55 47.2713L216.854 72.4987L217.08 76.0496C217.125 76.7459 217.08 77.8249 216.949 79.2691L220.989 79.0011C223.586 78.8281 224.946 79.7341 225.07 81.7164C225.127 82.5884 224.956 83.3773 224.551 84.0227C224.148 84.6657 223.66 85.0188 223.105 85.0554L218.976 85.3889ZM238.799 38.2874L240.934 69.0699L241.624 82.5713C241.679 83.6234 241.517 84.5074 241.11 85.2476C240.722 86.005 240.135 86.3947 239.359 86.4361C237.284 86.5458 236.128 84.181 235.878 79.3153L233.537 37.3352L232.953 15.0885C232.679 9.74781 233.699 7.00569 236.029 6.88144C237.422 6.80836 238.489 8.08468 239.245 10.7318C240.379 15.8071 242.261 23.0715 244.907 32.5668C247.556 42.0403 249.403 49.2659 250.47 54.2265C251.182 56.6352 252.125 60.2102 253.29 64.9444C254.472 69.6786 255.385 73.2514 256.03 75.6257C255.401 58.3812 254.443 37.53 253.186 13.0113L252.895 9.81846C252.84 8.72743 252.957 7.86544 253.24 7.21267C253.538 6.56009 254.077 6.19225 254.837 6.15335C255.613 6.112 256.261 6.31404 256.79 6.76458C257.821 7.6462 258.379 8.92717 258.467 10.6368C259.027 21.5348 259.506 35.5478 259.875 52.6655C260.259 69.7859 260.066 80.5281 259.299 84.8288C259.175 84.8775 258.91 85.0089 258.522 85.1893C258.136 85.3889 257.841 85.523 257.652 85.5741C255.92 86.1659 254.806 86.1244 254.296 85.4548C253.8 84.785 253.419 83.8717 253.152 82.71C252.902 81.5705 252.607 80.4477 252.28 79.3518C251.971 78.2535 250.718 73.0273 248.521 63.6684C242.692 38.8962 239.156 24.4913 237.884 20.478L238.799 38.2874ZM278.138 22.4214L281.261 74.9999L281.373 77.8419L283.102 77.7713C286.218 72.6084 288.162 67.8936 288.965 63.6634C289.718 59.7134 289.944 54.2314 289.668 47.2007C288.729 23.225 284.956 10.8219 278.35 9.99877C277.997 13.1769 277.937 17.3169 278.138 22.4214ZM294.232 35.5916L294.292 41.5969L294.549 48.1138C294.856 55.9799 294.78 61.3158 294.332 64.08C293.887 66.8634 293.403 69.1503 292.903 70.9621C292.403 72.7741 291.766 74.3911 291.028 75.8134C289.282 79.0498 287.035 81.7093 284.258 83.7939L277.759 84.0594C276.141 84.1251 275.143 78.9524 274.738 68.5632L273.535 31.0057C273.263 24.0749 272.899 17.5652 272.451 11.4722C271.896 10.7195 271.591 9.81847 271.548 8.74462C271.508 7.67304 271.822 6.72323 272.501 5.90015C273.185 5.07687 274.026 4.64352 275.041 4.60197C276.039 4.56308 276.939 5.22302 277.706 6.60144C278.176 6.80122 278.867 6.99364 279.796 7.15187C280.72 7.31502 281.394 7.5074 281.835 7.76552C285.451 9.66755 288.353 13.2109 290.554 18.3324C292.76 23.4758 293.984 29.2159 294.232 35.5916ZM310.672 21.8806L311.03 28.8505L311.373 40.2551C311.406 41.2293 311.444 42.3836 311.52 43.6939C311.594 45.0236 311.699 46.7502 311.818 48.8956C311.937 51.0582 312.102 53.1819 312.299 55.303C312.514 57.4046 312.745 59.6233 313.014 61.9831C313.278 64.3209 313.591 66.4786 313.972 68.4732C314.355 70.4483 314.751 72.2674 315.168 73.8821C316.125 77.3719 317.278 79.101 318.641 79.0523C320.482 78.989 321.807 76.7971 322.614 72.4524C323.832 66.0061 324.284 58.0938 323.975 48.7543L323.71 36.4513C323.427 27.8473 322.936 22.0535 322.233 19.0971C321.516 16.1163 320.89 13.888 320.316 12.3976C319.151 9.35585 317.514 7.87996 315.373 7.95303C315.311 7.95492 315.246 7.95869 315.182 7.96058C311.868 8.07501 310.37 12.7216 310.672 21.8808V21.8806ZM329.252 49.3267C330.007 72.1773 326.657 83.7305 319.186 83.9888C312.302 84.225 308.09 73.5314 306.534 51.9229C306.42 49.8577 306.32 47.812 306.251 45.7443L305.965 38.4725L305.889 36.1491C305.331 19.3407 306.956 8.87846 310.76 4.79191C311.68 3.78377 312.74 3.2309 313.91 3.11157C314.813 3.47694 315.935 3.79588 317.245 4.07119C318.555 4.36104 319.52 4.66787 320.166 5.00379C321.328 5.61993 322.624 7.28575 324.049 10.0231C325.473 12.7554 326.576 16.4183 327.365 21.0258C328.151 25.653 328.623 30.2922 328.775 34.9437L329.252 49.3267ZM388.882 74.7905C390.802 74.7711 391.779 75.6355 391.793 77.384C391.824 80.5257 390.076 82.1135 386.538 82.1475C385.078 82.1626 383.584 81.9162 382.04 81.3926C380.511 80.8909 379.348 80.3259 378.567 79.7172C374.312 76.3393 372.132 67.0145 371.994 51.7669L371.882 44.7702C371.673 21.9074 373.772 8.38906 378.195 4.22943C380.475 2.12044 383.656 1.03922 387.751 1.00013C388.434 0.992581 389.054 1.30472 389.647 1.91349C390.224 2.52471 390.514 3.23828 390.524 4.05419L390.525 4.53133C389.956 6.34575 388.424 7.27365 385.949 7.29801L384.22 7.19567C383.174 7.20511 382.242 7.94811 381.43 9.38979C380.618 10.8292 380.015 12.5632 379.603 14.5967C379.179 16.6082 378.85 18.8584 378.588 21.3449C378.195 25.2877 378.007 28.9455 378.04 32.3647L378.042 32.942L377.646 55.9678C377.692 60.8189 377.93 64.1749 378.376 66.0428C378.804 67.8863 379.247 69.3914 379.719 70.5408C380.172 71.6707 380.722 72.5986 381.346 73.3488C382.79 75.0437 384.622 75.8815 386.845 75.8619C387.59 75.8543 388.269 75.4894 388.881 74.7905H388.882ZM407.416 20.1783L407.524 27.1581L407.459 38.5674C407.457 39.5416 407.452 40.6958 407.481 42.0086C407.509 43.3407 407.552 45.0723 407.593 47.2201C407.633 49.3852 407.724 51.5137 407.843 53.6397C407.979 55.7487 408.133 57.9745 408.315 60.3441C408.498 62.6893 408.731 64.8568 409.041 66.8634C409.351 68.8531 409.682 70.6845 410.042 72.3162C410.871 75.8376 411.962 77.6081 413.327 77.613C415.168 77.6168 416.569 75.4773 417.536 71.1643C418.985 64.7692 419.721 56.8788 419.747 47.5344L419.926 35.2286C419.952 26.6197 419.666 20.8139 419.073 17.8307C418.465 14.8255 417.915 12.5778 417.396 11.0655C416.343 7.98233 414.759 6.44567 412.614 6.4383C412.553 6.4383 412.488 6.4383 412.424 6.4383C409.108 6.42509 407.445 11.0143 407.416 20.1783ZM424.998 48.3063C424.931 71.169 421.169 82.5884 413.694 82.564C406.807 82.5444 402.981 71.6975 402.204 50.0451C402.163 47.9775 402.135 45.9295 402.142 43.8619L402.116 36.5851L402.125 34.2594C402.175 17.4411 404.171 7.04709 408.119 3.10442C409.074 2.13273 410.156 1.62116 411.33 1.54336C412.216 1.94273 413.326 2.30549 414.627 2.62706C415.928 2.96788 416.878 3.30891 417.512 3.66937C418.651 4.33177 419.885 6.04383 421.212 8.83221C422.534 11.6157 423.508 15.3198 424.128 19.9519C424.752 24.6057 425.054 29.2597 425.04 33.9137L424.998 48.3063ZM443.239 40.4062C443.229 41.4193 442.996 43.0265 442.543 45.25C442.097 47.4539 441.857 49.4996 441.84 51.3869C441.824 53.2573 441.976 57.2926 442.298 63.4395C442.641 69.6055 442.795 73.5654 442.779 75.353C442.762 77.1429 442.495 78.4921 441.981 79.4224C441.464 80.3527 440.871 80.8203 440.22 80.8154C439.284 80.8059 438.705 80.007 438.484 78.4143C438.572 75.4505 438.622 71.8339 438.66 67.5381C438.698 63.2446 438.517 53.8222 438.107 39.264C437.702 24.6861 437.533 13.81 437.597 6.63313C437.631 2.87533 438.696 0.995402 440.806 1.01731C444.122 1.04884 446.905 2.16912 449.14 4.35609C451.388 6.54533 452.487 9.6772 452.449 13.7126C452.398 19.1385 452.027 23.371 451.319 26.3859C450.609 29.4228 449.29 33.1854 447.357 37.72C447.674 39.6122 448.244 43.4357 449.063 49.149C450.776 61.5131 452.756 70.4384 455.009 75.9472C455.643 77.5033 455.953 78.7187 455.946 79.5929C455.936 80.4672 455.738 81.2026 455.352 81.7944C454.95 82.3862 454.423 82.7004 453.771 82.6955C451.71 82.676 449.828 78.3217 448.179 69.6397C447.467 65.8747 446.836 62.0512 446.283 58.2083C444.713 47.6781 443.689 41.7431 443.239 40.4062ZM442.764 5.46905L442.433 7.15677C442.402 10.4151 442.424 15.108 442.476 21.2743C442.55 27.4356 442.572 31.9093 442.545 34.6929C444.049 33.7333 445.259 31.22 446.217 27.1337C447.176 23.0471 447.665 19.9104 447.686 17.743C447.705 15.5561 447.67 13.9658 447.584 12.9308C447.498 11.8959 447.303 10.7611 447.012 9.52636C446.45 6.91567 445.035 5.56894 442.764 5.46905ZM474.013 16.1065L473.017 39.3298L473.015 39.5076C476.867 38.9377 478.928 32.2624 479.197 19.482C479.292 14.828 478.532 11.83 476.927 10.4639C476.193 9.86963 475.264 9.55314 474.151 9.52878L474.013 16.1065ZM468.386 29.3839L468.767 18.0401C468.865 13.3472 468.674 9.64568 468.205 6.95209C468.386 5.93904 468.707 5.01362 469.172 4.12709C469.646 3.2432 470.213 2.79757 470.894 2.81457L475.085 2.90463C478.732 2.98507 481.265 4.95033 482.675 8.77856C483.904 12.188 484.473 16.0967 484.383 20.4706C484.266 26.0353 484.083 29.4327 483.849 30.6989C483.601 31.9459 483.337 33.1342 483.077 34.2594C482.799 35.3699 482.479 36.2758 482.113 36.9651C481.734 37.6737 481.26 38.4165 480.686 39.2396C480.114 40.0627 479.463 40.7642 478.737 41.3243C477.138 42.5833 475.197 43.6134 472.955 44.4586L472.688 57.2196L472.96 79.8146C472.938 80.8276 472.636 81.658 472.066 82.301C471.497 82.9659 470.809 83.2678 469.999 83.2508L467.683 83.1997C467.347 81.025 467.226 77.7809 467.316 73.468L467.735 42.9535L468.386 29.3839ZM501.44 21.6054L501.335 28.585L500.925 39.9872C500.894 40.9613 500.856 42.1157 500.844 43.4284C500.833 44.7605 500.823 46.4896 500.799 48.6375C500.778 50.805 500.801 52.9334 500.856 55.0643C500.932 57.1758 501.018 59.4065 501.13 61.7785C501.242 64.1287 501.409 66.3034 501.659 68.3198C501.909 70.3167 502.183 72.1604 502.495 73.7994C503.217 77.3451 504.256 79.1522 505.618 79.1984C507.46 79.2617 508.925 77.1648 510.021 72.886C511.658 66.5372 512.632 58.6736 512.939 49.3365L513.487 37.0406C513.771 28.4366 513.663 22.6259 513.158 19.6256C512.641 16.6033 512.158 14.3361 511.686 12.8091C510.724 9.69441 509.187 8.10882 507.048 8.03347C506.986 8.03347 506.922 8.0316 506.857 8.02783C503.544 7.9134 501.74 12.4454 501.44 21.6047V21.6054ZM518.166 50.2716C517.411 73.1198 513.306 84.4172 505.838 84.159C498.953 83.9228 495.456 72.9616 495.329 51.2945C495.351 49.2246 495.387 47.1764 495.453 45.1112L495.646 37.8369L495.725 35.5135C496.278 18.7025 498.588 8.37921 502.652 4.5606C503.636 3.62063 504.732 3.14329 505.909 3.10194C506.783 3.53057 507.879 3.92502 509.173 4.2904C510.462 4.67031 511.403 5.04045 512.024 5.42036C513.144 6.11694 514.323 7.86791 515.567 10.6976C516.806 13.5227 517.668 17.2536 518.147 21.9049C518.63 26.5759 518.792 31.2348 518.64 35.8862L518.166 50.2716ZM569.042 80.2553L572.813 80.1798C575.221 80.3089 576.391 81.3463 576.296 83.2727C576.234 84.4831 575.757 85.333 574.893 85.8224C574.04 86.3168 573.075 86.5434 572.029 86.4873L563.06 86.0075C562.252 85.9637 561.588 85.5886 561.054 84.8433C560.518 84.1201 560.249 83.207 560.253 82.133C560.263 81.037 560.396 79.6903 560.651 78.0732C560.911 76.4537 561.059 75.1508 561.106 74.1768L561.428 58.9243L563.863 24.1748L563.87 14.0827C564.158 8.4644 565.633 5.7149 568.296 5.8586C569.025 5.89769 569.707 6.23379 570.328 6.84502C570.581 6.89619 571.179 6.98625 572.106 7.13712C573.054 7.28818 573.871 7.45131 574.576 7.64618C575.281 7.84596 576.046 8.10408 576.858 8.42792C578.631 9.13903 579.467 10.2375 579.388 11.7668C579.305 13.3959 578.321 14.5795 576.425 15.3321C573.571 13.9439 571.217 13.0623 569.328 12.6824C569.335 14.3944 569.294 16.104 569.209 17.8112L567.92 34.8853C567.918 34.9656 567.979 35.5842 568.094 36.7629C568.094 36.7629 569.24 36.7685 571.496 36.7685C574.569 36.9341 576.034 38.1081 575.924 40.2705C575.865 41.4419 575.541 42.4404 574.957 43.3049C574.373 44.1695 573.587 44.5858 572.589 44.5324C571.608 44.4788 570.755 44.0745 570.045 43.3391L567.634 43.2099C567.656 46.2371 567.603 49.1229 567.465 51.8407L565.948 73.3811C565.719 77.8476 566.745 80.1318 569.042 80.2561L569.042 80.2553ZM641.036 70.3484L640.35 72.6887C640.276 73.6604 640.367 76.0373 640.634 79.851C640.903 83.6379 641.001 86.1197 640.912 87.2885L640.903 87.4078C640.767 89.193 640.208 90.2645 639.207 90.6639C637.878 90.5567 636.87 90.1986 636.17 89.6046C635.465 88.9907 635.207 87.5953 635.374 85.4157C635.539 83.2336 635.405 78.6967 635.005 71.8048L632.106 71.2155L628.956 70.9645C628.272 70.5334 627.038 70.2364 625.252 70.0952C625.246 70.1732 625.159 70.6845 625.006 71.6294C624.859 72.5743 624.751 73.3245 624.661 73.8942C624.568 74.4861 624.425 75.3311 624.225 76.4733C624.03 77.5934 623.844 78.558 623.658 79.3372C623.47 80.1214 623.241 81.0419 622.989 82.0963C622.715 83.1534 622.443 84.0301 622.15 84.7242C621.859 85.4157 621.554 86.0709 621.235 86.7259C620.58 88.0288 619.849 88.6474 619.039 88.5842C618.234 88.5183 617.545 88.1676 616.957 87.5222C616.368 86.877 616.111 86.0781 616.18 85.1479C618.45 77.2721 620.513 68.9798 622.383 60.2953C624.237 51.5892 625.345 46.4335 625.693 44.8043C626.055 43.1776 626.834 40.0482 628.044 35.4186C629.256 30.772 630.002 27.6792 630.297 26.1084C630.576 24.5132 630.907 22.4871 631.238 19.981C631.941 14.5113 632.78 11.0093 633.771 9.49213L636.965 9.74539C639.133 9.91836 640.148 10.817 640.024 12.4414C638.864 27.723 638.897 43.0216 640.136 58.313C640.182 59.2166 640.324 60.4634 640.534 62.0756C641.018 65.5825 641.189 68.3489 641.037 70.3484H641.036ZM634.745 67.2775C634.64 66.1134 634.69 64.2212 634.888 61.6275C635.083 59.0291 635.197 55.8899 635.209 52.1591C635.233 48.4549 635.181 44.1225 635.047 39.2055C634.926 34.2911 634.862 30.738 634.838 28.5606C634.302 30.772 633.287 34.4786 631.798 39.6464C628.782 50.4325 627.002 58.788 626.488 64.7082C627.51 65.6872 630.264 66.542 634.745 67.2775ZM663.289 24.4937L661.217 53.0649C660.759 54.1633 660.395 56.2868 660.133 59.4553L658.217 78.3436C657.767 83.8109 658.603 86.6189 660.74 86.8015L664.69 86.9791C668.09 87.2715 669.688 88.567 669.5 90.8831C669.428 91.7355 669.068 92.4222 668.437 92.9262C667.804 93.4498 667.113 93.7323 666.362 93.7859C664.128 92.656 661.336 91.9375 658.001 91.6526C656.928 92.298 655.916 92.5903 654.968 92.5074C654.034 92.4294 653.326 91.9692 652.871 91.0925C652.417 90.2377 652.216 89.3391 652.297 88.3699L657.593 35.3359L657.662 34.4663C657.677 31.9725 657.886 28.2612 658.291 23.3077C658.908 15.7972 660.323 12.1297 662.505 12.3172C663.153 12.3733 663.699 12.7165 664.125 13.3327C664.552 13.9682 664.75 14.6843 664.683 15.4953L663.289 24.4937ZM685.227 88.4624L685.018 92.0204C684.899 93.2842 684.599 94.2535 684.127 94.8868C683.634 95.515 682.938 95.7878 682.007 95.6953C681.092 95.605 680.358 95.2544 679.827 94.6407C679.298 94.01 679.091 93.1698 679.222 92.125C679.355 91.0584 680.656 81.1807 683.126 62.4897C685.599 43.779 687.284 29.6859 688.184 20.1882C688.47 18.1766 688.832 16.8541 689.306 16.2234C689.766 15.5903 690.369 15.2711 691.119 15.264C691.869 15.2583 692.355 15.3467 692.591 15.5293C692.815 15.712 693.027 15.9921 693.182 16.3671C693.351 16.764 693.494 17.1171 693.608 17.4483C693.706 17.7576 693.804 18.2472 693.854 18.8902C693.918 19.5548 693.968 20.0395 693.999 20.383C694.032 20.7068 694.061 21.2475 694.087 21.9708C694.116 22.6916 694.13 23.3906 694.161 24.0749C694.192 24.7568 694.39 27.5525 694.771 32.4427C695.152 37.3352 695.481 43.6377 695.757 51.3358C696.05 59.0143 696.307 68.7679 696.529 80.5744C699.702 67.745 702.547 55.5636 705.074 44.03C707.602 32.4937 708.931 26.3739 709.076 25.6505C709.226 24.9054 709.341 24.3769 709.42 24.0432C709.503 23.6926 709.632 23.1859 709.822 22.4871C710.013 21.8075 710.175 21.2841 710.325 20.8993C710.47 20.5339 710.67 20.0956 710.942 19.6036C711.197 19.0873 711.471 18.7147 711.752 18.464C712.4 17.8282 713.126 17.5605 713.917 17.6383C714.722 17.7187 715.47 18.0742 716.156 18.7416C716.845 19.387 717.133 20.215 717.038 21.2231C715.318 39.3883 714.267 51.9886 713.86 58.9998C713.465 66.0305 713.195 70.2364 713.057 71.683L711.151 90.8101C711.359 91.6673 711.414 92.5925 711.323 93.5423C711.235 94.4921 710.887 95.4761 710.294 96.5159C709.684 97.5364 708.986 98.0234 708.197 97.9456C706.223 97.7507 705.46 95.1789 705.929 90.2328L707.109 79.2836C707.838 71.5856 708.426 64.7131 708.872 58.6248C709.308 55.0326 710.244 45.6592 711.683 30.4603C710.017 37.7857 707.747 47.6099 704.876 59.9277C702.003 72.248 700.462 78.7673 700.298 79.5102C700.112 80.2504 699.95 80.9713 699.838 81.6606C699.709 82.3473 699.588 82.9536 699.478 83.4432C699.366 83.9302 699.2 84.5146 698.964 85.1479C698.73 85.7835 698.49 86.2998 698.228 86.7138C697.608 87.7099 696.815 88.1506 695.867 88.0581C694.004 87.8731 693.06 86.0611 693.017 82.6224C692.972 77.7445 692.76 69.155 692.398 56.8566C692.017 44.5339 691.652 36.2491 691.309 31.9605C688.255 59.0047 686.233 77.8394 685.227 88.4624ZM747.774 81.1564L747 83.4676C746.888 84.4344 746.888 86.816 747.011 90.6346C747.137 94.4313 747.142 96.9153 747.009 98.0794L746.994 98.1963C746.792 99.9741 746.191 101.024 745.177 101.384C743.854 101.226 742.861 100.829 742.18 100.205C741.501 99.5649 741.296 98.1598 741.544 95.9874C741.794 93.8152 741.83 89.2757 741.691 82.3741L738.816 81.6702L735.679 81.2952C735.014 80.835 733.789 80.4915 732.01 80.2796C732.001 80.3576 731.893 80.8641 731.707 81.8018C731.521 82.7418 731.388 83.4846 731.274 84.0545C731.159 84.6413 730.983 85.4791 730.742 86.614C730.504 87.7245 730.283 88.6791 730.068 89.4535C729.849 90.2279 729.587 91.1388 729.292 92.1835C728.982 93.2259 728.677 94.0928 728.358 94.7746C728.041 95.4567 727.712 96.0994 727.367 96.7376C726.662 98.0162 725.909 98.6055 725.104 98.508C724.301 98.4131 723.627 98.0332 723.062 97.3659C722.5 96.6985 722.271 95.89 722.376 94.9621C724.942 87.1814 727.317 78.9792 729.513 70.3728C731.698 61.7469 732.996 56.6376 733.406 55.0254C733.83 53.4132 734.726 50.3178 736.11 45.7396C737.496 41.144 738.358 38.0829 738.711 36.5242C739.052 34.9412 739.459 32.9297 739.886 30.4384C740.793 25.0004 741.765 21.5348 742.811 20.059L745.996 20.4389C748.155 20.6946 749.134 21.6348 748.948 23.2517C747.211 38.4774 746.666 53.7639 747.328 69.0942C747.339 69.9978 747.435 71.2495 747.585 72.869C747.933 76.3929 748 79.1643 747.773 81.1564H747.774ZM741.604 77.8394C741.542 76.6729 741.664 74.7832 741.959 72.1968C742.254 69.6105 742.483 66.4764 742.638 62.7503C742.802 59.0485 742.914 54.7186 742.964 49.7991C743.031 44.8848 743.102 41.3316 743.16 39.1543C742.54 41.3413 741.385 45.0064 739.703 50.1133C736.282 60.7727 734.186 69.0504 733.449 74.9463C734.433 75.9642 737.151 76.9286 741.604 77.8394Z" fill="#8E9A90" stroke="#8E9A90" stroke-width="0.6197" stroke-linejoin="round"/>
<path fill-rule="evenodd" clip-rule="evenodd" d="M290.387 189.864C292.305 189.777 293.31 190.605 293.386 192.353C293.525 195.49 291.833 197.141 288.298 197.302C286.84 197.367 285.339 197.177 283.776 196.71C282.23 196.264 281.051 195.741 280.248 195.161C275.879 191.937 273.378 182.697 272.713 167.467L272.36 160.475C271.362 137.636 272.994 124.05 277.268 119.734C279.474 117.545 282.614 116.347 286.706 116.162C287.388 116.13 288.019 116.417 288.631 117.007C289.232 117.596 289.549 118.298 289.582 119.113L289.603 119.591C289.096 121.424 287.598 122.406 285.122 122.52L283.393 122.479C282.345 122.528 281.442 123.305 280.682 124.773C279.917 126.242 279.376 127.997 279.036 130.043C278.681 132.067 278.428 134.329 278.252 136.823C277.997 140.778 277.935 144.441 278.085 147.857L278.109 148.435L278.509 171.46C278.721 176.307 279.076 179.653 279.586 181.501C280.079 183.328 280.572 184.818 281.082 185.948C281.575 187.061 282.154 187.97 282.809 188.695C284.308 190.339 286.168 191.109 288.386 191.009C289.134 190.975 289.801 190.585 290.387 189.864ZM307.027 134.694L307.373 141.667L307.704 153.071C307.732 154.045 307.771 155.197 307.845 156.51C307.918 157.84 308.018 159.566 308.135 161.712C308.249 163.875 308.414 165.998 308.604 168.119C308.817 170.221 309.048 172.442 309.312 174.802C309.574 177.14 309.884 179.297 310.262 181.292C310.641 183.267 311.034 185.088 311.449 186.703C312.399 190.193 313.552 191.925 314.915 191.878C316.757 191.817 318.083 189.628 318.898 185.283C320.125 178.84 320.587 170.927 320.292 161.588L320.046 149.284C319.773 140.678 319.289 134.887 318.593 131.928C317.881 128.947 317.255 126.719 316.683 125.226C315.525 122.182 313.886 120.703 311.747 120.774C311.685 120.776 311.62 120.78 311.556 120.782C308.242 120.891 306.737 125.535 307.027 134.695V134.694ZM325.566 162.17C326.288 185.02 322.924 196.569 315.453 196.815C308.571 197.041 304.373 186.34 302.849 164.729C302.734 162.664 302.637 160.618 302.572 158.553L302.296 151.281L302.222 148.956C301.691 132.147 303.328 121.687 307.137 117.606C308.059 116.6 309.121 116.05 310.293 115.93C311.194 116.298 312.314 116.617 313.624 116.895C314.934 117.187 315.899 117.494 316.544 117.83C317.707 118.451 318.998 120.119 320.418 122.856C321.84 125.591 322.941 129.256 323.72 133.867C324.501 138.494 324.966 143.133 325.111 147.784L325.566 162.17ZM344.034 188.612L344.229 192.168C344.253 193.439 344.067 194.438 343.667 195.122C343.252 195.806 342.59 196.157 341.656 196.176C340.737 196.196 339.969 195.933 339.369 195.388C338.773 194.825 338.471 194.014 338.483 192.959C338.492 191.886 338.666 181.92 338.998 163.064C339.331 144.185 339.405 129.987 339.219 120.445C339.276 118.417 339.486 117.06 339.886 116.376C340.272 115.692 340.834 115.302 341.577 115.207C342.323 115.115 342.816 115.144 343.071 115.297C343.314 115.453 343.555 115.706 343.753 116.059C343.967 116.432 344.148 116.768 344.298 117.082C344.429 117.379 344.584 117.852 344.705 118.485C344.846 119.138 344.951 119.615 345.02 119.951C345.089 120.268 345.177 120.803 345.289 121.517C345.399 122.231 345.492 122.922 345.599 123.597C345.706 124.274 346.223 127.026 347.154 131.838C348.09 136.652 349.129 142.875 350.278 150.487C351.44 158.078 352.803 167.735 354.363 179.436C356.059 166.317 357.501 153.88 358.701 142.125C359.902 130.367 360.528 124.13 360.593 123.395C360.657 122.637 360.712 122.099 360.75 121.758C360.793 121.4 360.862 120.881 360.976 120.163C361.088 119.466 361.188 118.926 361.293 118.529C361.398 118.149 361.546 117.686 361.76 117.167C361.953 116.624 362.184 116.223 362.434 115.94C363.008 115.231 363.697 114.878 364.49 114.864C365.3 114.847 366.084 115.11 366.842 115.692C367.597 116.252 367.978 117.041 367.997 118.054C368.352 136.299 368.738 148.939 369.128 155.95C369.536 162.983 369.743 167.191 369.772 168.643L370.05 187.867C370.35 188.695 370.51 189.609 370.529 190.563C370.548 191.515 370.315 192.533 369.843 193.637C369.357 194.723 368.716 195.29 367.923 195.307C365.941 195.346 364.893 192.884 364.795 187.914L364.726 176.899C364.576 169.166 364.381 162.27 364.133 156.172C364.159 152.55 364.023 143.13 363.728 127.863C362.903 135.335 361.765 145.364 360.312 157.94C358.856 170.516 358.065 177.174 357.984 177.931C357.887 178.688 357.805 179.424 357.772 180.123C357.722 180.819 357.672 181.438 357.617 181.935C357.563 182.434 357.462 183.033 357.303 183.691C357.141 184.348 356.962 184.891 356.745 185.332C356.243 186.396 355.507 186.927 354.556 186.947C352.684 186.986 351.54 185.298 351.109 181.886C350.509 177.047 349.327 168.541 347.566 156.369C345.789 144.175 344.489 135.99 343.662 131.77C343.698 158.992 343.826 177.941 344.034 188.612ZM435.761 173.857L435.244 176.241C435.242 177.215 435.499 179.582 436.037 183.364C436.575 187.122 436.852 189.589 436.847 190.76V190.88C436.838 192.67 436.356 193.78 435.387 194.253C434.052 194.247 433.023 193.965 432.28 193.425C431.535 192.864 431.179 191.493 431.187 189.306C431.196 187.12 430.741 182.604 429.85 175.759L426.918 175.386L423.759 175.373C423.046 174.991 421.793 174.789 420 174.779C420 174.857 419.95 175.373 419.866 176.328C419.785 177.282 419.733 178.037 419.683 178.615C419.63 179.211 419.547 180.066 419.433 181.218C419.316 182.35 419.201 183.324 419.07 184.118C418.939 184.915 418.777 185.847 418.599 186.919C418.403 187.993 418.191 188.887 417.951 189.603C417.71 190.314 417.453 190.991 417.179 191.665C416.619 193.015 415.935 193.687 415.125 193.682C414.315 193.68 413.603 193.38 412.972 192.778C412.34 192.179 412.024 191.405 412.028 190.47C413.729 182.445 415.194 174.021 416.44 165.22C417.67 156.4 418.403 151.173 418.634 149.525C418.88 147.874 419.433 144.695 420.312 139.988C421.188 135.263 421.71 132.124 421.891 130.534C422.058 128.922 422.241 126.876 422.396 124.353C422.703 118.845 423.292 115.289 424.171 113.704L427.377 113.719C429.55 113.728 430.624 114.549 430.617 116.178C430.551 131.506 431.675 146.761 434.005 161.921C434.112 162.817 434.343 164.049 434.672 165.642C435.401 169.103 435.77 171.85 435.761 173.856V173.857ZM429.267 171.263C429.083 170.111 428.995 168.219 429.007 165.616C429.018 163.01 428.904 159.871 428.649 156.152C428.414 152.453 428.049 148.135 427.563 143.245C427.094 138.352 426.777 134.811 426.596 132.644C426.22 134.887 425.474 138.662 424.357 143.927C422.12 154.908 420.938 163.373 420.85 169.317C421.939 170.216 424.745 170.864 429.267 171.263ZM453.485 188.152L453.54 191.715C453.516 192.986 453.292 193.975 452.865 194.645C452.422 195.31 451.75 195.633 450.814 195.616C449.892 195.597 449.137 195.305 448.563 194.735C447.984 194.148 447.717 193.327 447.77 192.273C447.822 191.199 448.379 181.248 449.442 162.418C450.507 143.571 451.129 129.388 451.317 119.846C451.45 117.82 451.712 116.473 452.139 115.806C452.551 115.136 453.125 114.771 453.875 114.705C454.623 114.645 455.112 114.694 455.364 114.856C455.598 115.022 455.829 115.285 456.015 115.645C456.212 116.028 456.382 116.369 456.52 116.69C456.641 116.992 456.775 117.472 456.872 118.11C456.987 118.767 457.072 119.245 457.13 119.586C457.187 119.905 457.256 120.443 457.337 121.161C457.418 121.88 457.485 122.574 457.566 123.253C457.647 123.933 458.056 126.702 458.802 131.551C459.548 136.397 460.348 142.658 461.201 150.31C462.068 157.942 463.054 167.647 464.16 179.402C466.363 166.361 468.286 153.992 469.944 142.295C471.597 130.596 472.464 124.391 472.557 123.658C472.65 122.903 472.726 122.367 472.779 122.028C472.836 121.673 472.924 121.157 473.065 120.445C473.205 119.754 473.324 119.218 473.446 118.824C473.565 118.448 473.729 117.993 473.963 117.482C474.179 116.948 474.425 116.556 474.685 116.284C475.285 115.599 475.99 115.273 476.783 115.29C477.591 115.307 478.365 115.602 479.099 116.213C479.833 116.805 480.183 117.606 480.164 118.619C479.809 136.867 479.706 149.511 479.826 156.534C479.957 163.575 480.002 167.79 479.976 169.242L479.506 188.464C479.778 189.302 479.902 190.22 479.883 191.174C479.864 192.129 479.592 193.137 479.08 194.219C478.549 195.283 477.889 195.826 477.096 195.809C475.111 195.77 474.16 193.264 474.256 188.296L474.611 177.286C474.761 169.556 474.835 162.657 474.823 156.552C474.989 152.935 475.221 143.515 475.516 128.251C474.404 135.683 472.876 145.656 470.937 158.164C468.996 170.671 467.947 177.293 467.838 178.046C467.709 178.798 467.6 179.531 467.54 180.225C467.462 180.922 467.388 181.535 467.314 182.032C467.24 182.526 467.118 183.121 466.933 183.774C466.744 184.424 466.544 184.957 466.313 185.391C465.77 186.433 465.013 186.934 464.06 186.915C462.19 186.876 461.113 185.145 460.815 181.72C460.401 176.86 459.548 168.312 458.264 156.077C456.96 143.82 455.977 135.591 455.312 131.341C454.295 158.541 453.69 177.481 453.485 188.152ZM498.712 134.22L498.617 141.199L498.226 152.601C498.195 153.575 498.157 154.73 498.147 156.043C498.138 157.375 498.131 159.104 498.112 161.252C498.09 163.419 498.117 165.548 498.179 167.678C498.252 169.79 498.343 172.021 498.46 174.393C498.572 176.743 498.743 178.917 498.996 180.934C499.251 182.931 499.527 184.772 499.839 186.411C500.568 189.957 501.609 191.759 502.974 191.805C504.813 191.866 506.276 189.767 507.365 185.486C508.994 179.137 509.956 171.27 510.252 161.931L510.781 149.638C511.055 141.034 510.938 135.221 510.428 132.22C509.904 129.2 509.42 126.933 508.947 125.409C507.982 122.294 506.44 120.711 504.301 120.64C504.239 120.638 504.175 120.635 504.11 120.633C500.797 120.523 499.003 125.06 498.712 134.219V134.22ZM515.479 162.859C514.754 185.71 510.666 197.012 503.198 196.766C496.313 196.539 492.802 185.583 492.645 163.916C492.664 161.848 492.695 159.8 492.759 157.733L492.942 150.458L493.016 148.135C493.547 131.324 495.844 120.996 499.901 117.172C500.885 116.23 501.981 115.75 503.155 115.709C504.032 116.135 505.13 116.529 506.421 116.892C507.71 117.27 508.651 117.64 509.275 118.02C510.395 118.714 511.579 120.462 512.822 123.29C514.068 126.112 514.933 129.843 515.421 134.492C515.91 139.163 516.079 143.822 515.934 148.473L515.479 162.859ZM534.046 155.551C534.006 156.564 533.717 158.161 533.198 160.37C532.681 162.557 532.378 164.593 532.3 166.478C532.226 168.348 532.252 172.388 532.383 178.54C532.531 184.716 532.562 188.678 532.49 190.463C532.417 192.251 532.107 193.593 531.561 194.503C531.016 195.417 530.408 195.867 529.763 195.841C528.824 195.799 528.271 194.981 528.097 193.383C528.281 190.424 528.443 186.81 528.617 182.519C528.791 178.231 528.903 168.804 528.953 154.24C529.003 139.658 529.174 128.781 529.467 121.61C529.617 117.857 530.74 116.011 532.848 116.101C536.164 116.242 538.911 117.452 541.071 119.712C543.254 121.975 544.252 125.141 544.09 129.174C543.868 134.595 543.366 138.813 542.56 141.803C541.755 144.813 540.319 148.532 538.246 153.001C538.503 154.903 538.951 158.741 539.592 164.478C540.917 176.894 542.617 185.878 544.693 191.459C545.281 193.035 545.548 194.26 545.514 195.134C545.479 196.009 545.259 196.734 544.852 197.314C544.433 197.893 543.897 198.191 543.244 198.164C541.183 198.076 539.439 193.663 538.067 184.93C537.472 181.143 536.96 177.303 536.528 173.443C535.29 162.866 534.453 156.9 534.046 155.551ZM534.668 120.616L534.284 122.291C534.151 125.547 534.022 130.24 533.884 136.402C533.763 142.563 533.643 147.037 533.531 149.818C535.063 148.907 536.354 146.435 537.439 142.383C538.525 138.33 539.113 135.211 539.199 133.043C539.287 130.859 539.304 129.269 539.251 128.234C539.197 127.194 539.037 126.054 538.787 124.81C538.306 122.182 536.931 120.791 534.668 120.616Z" fill="#8E9A90" stroke="#8E9A90" stroke-width="0.6197" stroke-linejoin="round"/>
<path fill-rule="evenodd" clip-rule="evenodd" d="M43.0691 96.8033L26.7077 88.8129L13.5623 101.579L15.9397 83.2045L0 74.369L17.8313 71.0011L21.1236 52.7727L29.7665 69.0698L47.7432 66.6394L35.2528 80.0775L43.0691 96.8033Z" fill="#8E9A90"/>
<path fill-rule="evenodd" clip-rule="evenodd" d="M776.928 96.8033L793.29 88.8129L806.435 101.579L804.058 83.2045L820 74.369L802.169 71.0011L798.874 52.7727L790.231 69.0698L772.254 66.6394L784.745 80.0775L776.928 96.8033Z" fill="#8E9A90"/>
</svg>
